<?xml version="1.0" encoding="UTF-8"?>
<svg id="Layer_1" data-name="Layer 1" xmlns="http://www.w3.org/2000/svg" viewBox="0 0 191 125.7">
  <defs>
    <style>
      .cls-1 {
        fill: #3f5dcc;
      }
    </style>
  </defs>
  <path class="cls-1" d="M191,105.7v5l-40.3.2-19.1,14.7-15.3-19c-28.4,12.9-66,6.5-79.4-23.9H0v-5h34C24.3,47.3,36.8,12.7,68.8,3c36.6-11.1,74.2,9.2,76.3,49.2,1,20.3-5.5,36.3-21,49.2l11.6,14.2c3,.6,10.2-9,14.9-9.8,11.9-1.9,28.1,1.3,40.4,0ZM115.6,13.1C104.6,3,89.4.3,75.2,4.5c-28.3,8.3-34.9,48.5-27.2,73.2l22.2-.2,21.1-15.6c2.7.5,21.9,27.6,26.1,31.9s1.8,2.7,3.5,1.5,3.9-7.1,4.5-8.6c8.3-20.8,7.7-57.5-9.8-73.6ZM72.5,82.7h-21.5c7,22.3,28.3,32.4,51,25.5s10.9-3.4,9.9-6.8l-23.9-30.7-15.5,12Z"/>
</svg>